:FULLY-SPECIFIED
:FORCE-ALL-JOINTS-BE-3DOF
:DEGREES
1427
root -2.08822 13.7094 12.6893 366.659 27.3583 366.554
lfemur 25.512 -0.26548 -10.2936
ltibia 17.0932 0 0
lfoot -15.7232 34.5744 0
ltoes -24.3448 0 0
rfemur -65.6053 -21.3625 12.1158
rtibia 74.18 0 0
rfoot -9.21172 10.3679 0
rtoes 4.65185 0 0
lowerback 10.25 2.02294 -10.2653
upperback -3.36184 1.19553 -0.957955
thorax -9.65525 1.1628 4.51856
lowerneck -0.0135629 -11.6599 -10.5312
upperneck 6.15118 -16.0416 9.64607
head 3.4627 -7.97469 3.87553
lclavicle 9.52665e-15 -2.51549e-14 0
lhumerus -73.8186 -18.1409 104.39
lradius 100.802 0 0
lwrist 58.3915 0 0
lhand -9.70373 41.6711 0
lfingers 7.12502 0 0
lthumb 16.2761 -289.004 0
rclavicle 8.25649e-14 6.24497e-15 0
rhumerus 63.1975 -13.9692 -27.922
rradius 82.0208 0 0
rwrist 26.7926 0 0
rhand -43.9084 -30.998 0
rfingers 7.12502 0 0
rthumb -16.6781 -60.4634 0
1428
root -2.09095 13.7089 12.6884 366.659 27.3319 366.513
lfemur 25.4993 -0.261753 -10.2953
ltibia 17.1092 0 0
lfoot -15.7234 34.5875 0
ltoes -24.3671 0 0
rfemur -65.676 -21.4179 12.1446
rtibia 74.1931 0 0
rfoot -9.21634 10.4099 0
rtoes 4.66143 0 0
lowerback 10.2162 2.0162 -10.2186
upperback -3.35863 1.19929 -0.936888
thorax -9.63094 1.16138 4.51537
lowerneck -0.0300741 -11.654 -10.5376
upperneck 6.13933 -16.0295 9.62413
head 3.4593 -7.96907 3.87025
lclavicle 9.97547e-15 -2.51116e-14 0
lhumerus -73.8309 -18.1805 104.422
lradius 100.792 0 0
lwrist 58.4029 0 0
lhand -9.71074 41.6209 0
lfingers 7.12502 0 0
lthumb 16.272 -289.06 0
rclavicle 8.30602e-14 6.26172e-15 0
rhumerus 63.1555 -13.9683 -27.8839
rradius 82.0699 0 0
rwrist 26.7905 0 0
rhand -43.8758 -31.0195 0
rfingers 7.12502 0 0
rthumb -16.6679 -60.466 0
1429
root -2.09385 13.7096 12.6875 366.657 27.29 366.479
lfemur 25.4626 -0.25098 -10.3003
ltibia 17.1148 0 0
lfoot -15.7237 34.6011 0
ltoes -24.3965 0 0
rfemur -65.7466 -21.4733 12.1734
rtibia 74.2051 0 0
rfoot -9.22043 10.4471 0
rtoes 4.6893 0 0
lowerback 10.1998 2.00932 -10.193
upperback -3.36437 1.19648 -0.923438
thorax -9.62655 1.15899 4.51646
lowerneck -0.0430407 -11.652 -10.4902
upperneck 6.15585 -16.0225 9.56096
head 3.45668 -7.96576 3.84452
lclavicle 1.01303e-14 -2.50966e-14 0
lhumerus -73.8426 -18.2184 104.453
lradius 100.788 0 0
lwrist 58.4145 0 0
lhand -9.7185 41.5654 0
lfingers 7.12502 0 0
lthumb 16.2674 -289.122 0
rclavicle 8.25052e-14 6.37923e-15 0
rhumerus 63.1124 -13.9674 -27.8447
rradius 82.1239 0 0
rwrist 26.7836 0 0
rhand -43.8397 -31.0434 0
rfingers 7.12502 0 0
rthumb -16.6583 -60.4684 0
1430
root -2.09957 13.7123 12.6833 366.635 27.195 366.258
lfemur 25.4039 -0.233775 -10.3083
ltibia 17.1419 0 0
lfoot -15.724 34.615 0
ltoes -24.432 0 0
rfemur -65.8158 -21.5276 12.2016
rtibia 74.2158 0 0
rfoot -9.22392 10.4788 0
rtoes 4.73416 0 0
lowerback 10.1946 2.03343 -10.0057
upperback -3.40441 1.25676 -0.878786
thorax -9.67137 1.18165 4.44794
lowerneck -0.030902 -11.6484 -10.4985
upperneck 6.11941 -16.0195 9.60289
head 3.44755 -7.96398 3.85995
lclavicle 1.02342e-14 -2.50306e-14 0
lhumerus -73.8537 -18.2541 104.482
lradius 100.786 0 0
lwrist 58.4263 0 0
lhand -9.72684 41.5058 0
lfingers 7.12502 0 0
lthumb 16.2624 -289.19 0
rclavicle 8.0913e-14 6.71636e-15 0
rhumerus 63.0684 -13.9665 -27.8049
rradius 82.1821 0 0
rwrist 26.7637 0 0
rhand -43.8007 -31.0692 0
rfingers 7.12502 0 0
rthumb -16.6492 -60.4707 0
1431
root -2.10052 13.7102 12.6851 366.674 27.2085 366.442
lfemur 25.3254 -0.210749 -10.319
ltibia 17.2205 0 0
lfoot -15.7242 34.6291 0
ltoes -24.4726 0 0
rfemur -65.8821 -21.5797 12.2287
rtibia 74.225 0 0
rfoot -9.22675 10.5046 0
rtoes 4.79469 0 0
lowerback 10.1973 2.01609 -10.1603
upperback -3.36448 1.21119 -0.913604
thorax -9.62651 1.16443 4.50606
lowerneck -0.0623379 -11.6446 -10.4538
upperneck 6.08184 -16.0078 9.5764
head 3.43442 -7.95734 3.84603
lclavicle 1.05348e-14 -2.48397e-14 0
lhumerus -73.864 -18.2872 104.509
lradius 100.779 0 0
lwrist 58.4381 0 0
lhand -9.73559 41.4432 0
lfingers 7.12502 0 0
lthumb 16.257 -289.263 0
rclavicle 7.83928e-14 7.24999e-15 0
rhumerus 63.0243 -13.9657 -27.7649
rradius 82.2438 0 0
rwrist 26.7323 0 0
rhand -43.7595 -31.0964 0
rfingers 7.12502 0 0
rthumb -16.6407 -60.4728 0
1432
root -2.10507 13.7133 12.6811 366.687 27.1164 366.337
lfemur 25.2291 -0.182515 -10.3321
ltibia 17.3469 0 0
lfoot -15.7245 34.6432 0
ltoes -24.5173 0 0
rfemur -65.9442 -21.6284 12.254
rtibia 74.2325 0 0
rfoot -9.22886 10.5238 0
rtoes 4.8696 0 0
lowerback 10.1999 2.02562 -10.0784
upperback -3.39853 1.23491 -0.889731
thorax -9.6672 1.17475 4.48096
lowerneck -0.0769358 -11.6496 -10.4778
upperneck 6.09649 -16.0156 9.59648
head 3.44555 -7.96061 3.85322
lclavicle 1.10158e-14 -2.45341e-14 0
lhumerus -73.8734 -18.3173 104.533
lradius 100.769 0 0
lwrist 58.4499 0 0
lhand -9.74458 41.3789 0
lfingers 7.12502 0 0
lthumb 16.2514 -289.34 0
rclavicle 7.50537e-14 7.957e-15 0
rhumerus 62.9803 -13.9648 -27.7251
rradius 82.3083 0 0
rwrist 26.6904 0 0
rhand -43.7169 -31.1246 0
rfingers 7.12502 0 0
rthumb -16.6331 -60.4748 0
1433
root -2.10737 13.7097 12.6837 366.694 27.1176 366.483
lfemur 25.1172 -0.149687 -10.3473
ltibia 17.5172 0 0
lfoot -15.7247 34.6573 0
ltoes -24.5651 0 0
rfemur -66.0007 -21.6727 12.277
rtibia 74.238 0 0
rfoot -9.23017 10.5357 0
rtoes 4.95757 0 0
lowerback 10.2167 2.02758 -10.2089
upperback -3.36262 1.21697 -0.918938
thorax -9.63864 1.17038 4.52601
lowerneck -0.0624861 -11.6602 -10.4676
upperneck 6.04953 -16.0288 9.60364
head 3.43018 -7.96754 3.8551
lclavicle 1.16608e-14 -2.41244e-14 0
lhumerus -73.8817 -18.3439 104.555
lradius 100.755 0 0
lwrist 58.4615 0 0
lhand -9.75366 41.314 0
lfingers 7.12502 0 0
lthumb 16.2456 -289.419 0
rclavicle 7.1005e-14 8.81427e-15 0
rhumerus 62.9372 -13.9639 -27.6859
rradius 82.3749 0 0
rwrist 26.6395 0 0
rhand -43.6735 -31.1532 0
rfingers 7.12502 0 0
rthumb -16.6264 -60.4765 0
1434
root -2.11154 13.7089 12.6832 366.732 27.0886 366.537
lfemur 24.9917 -0.112876 -10.3644
ltibia 17.7277 0 0
lfoot -15.725 34.6712 0
ltoes -24.6148 0 0
rfemur -66.0501 -21.7114 12.2971
rtibia 74.2415 0 0
rfoot -9.23062 10.5398 0
rtoes 5.0573 0 0
lowerback 10.2265 2.01719 -10.2723
upperback -3.36805 1.19223 -0.923916
thorax -9.64893 1.16278 4.56053
lowerneck -0.0669102 -11.6413 -10.4433
upperneck 6.0258 -16.0022 9.60866
head 3.41955 -7.95381 3.85574
lclavicle 1.24533e-14 -2.36209e-14 0
lhumerus -73.8887 -18.3667 104.574
lradius 100.738 0 0
lwrist 58.4729 0 0
lhand -9.76265 41.2497 0
lfingers 7.12502 0 0
lthumb 16.2396 -289.499 0
rclavicle 6.63558e-14 9.79869e-15 0
rhumerus 62.8952 -13.963 -27.6478
rradius 82.4429 0 0
rwrist 26.5808 0 0
rhand -43.6302 -31.1819 0
rfingers 7.12502 0 0
rthumb -16.6206 -60.4779 0
1435
root -2.11593 13.7087 12.683 366.775 27.0804 366.6
lfemur 24.8547 -0.0726959 -10.383
ltibia 17.9744 0 0
lfoot -15.7253 34.6848 0
ltoes -24.6657 0 0
rfemur -66.0909 -21.7435 12.3138
rtibia 74.2427 0 0
rfoot -9.21513 10.5333 0
rtoes 5.16748 0 0
lowerback 10.2168 2.00531 -10.349
upperback -3.36168 1.16684 -0.929043
thorax -9.63494 1.15417 4.60306
lowerneck -0.0267845 -11.6299 -10.4396
upperneck 5.9521 -15.9881 9.64396
head 3.39206 -7.94761 3.87135
lclavicle 1.3377e-14 -2.30341e-14 0
lhumerus -73.8945 -18.3852 104.589
lradius 100.718 0 0
lwrist 58.4838 0 0
lhand -9.7714 41.1871 0
lfingers 7.12502 0 0
lthumb 16.2337 -289.581 0
rclavicle 6.12152e-14 1.08871e-14 0
rhumerus 62.8549 -13.9622 -27.6113
rradius 82.5117 0 0
rwrist 26.5156 0 0
rhand -43.5876 -31.2101 0
rfingers 7.12502 0 0
rthumb -16.6159 -60.4791 0
1436
root -2.11972 13.7091 12.6808 366.829 27.1005 366.674
lfemur 24.7083 -0.0297586 -10.4029
ltibia 18.2536 0 0
lfoot -15.7255 34.6979 0
ltoes -24.7165 0 0
rfemur -66.1218 -21.7677 12.3264
rtibia 74.2418 0 0
rfoot -9.17078 10.5147 0
rtoes 5.28681 0 0
lowerback 10.2353 1.98466 -10.3946
upperback -3.37128 1.12825 -0.948374
thorax -9.65157 1.13879 4.61446
lowerneck -0.0372435 -11.6403 -10.4317
upperneck 5.96783 -16.0014 9.62987
head 3.39804 -7.95398 3.86395
lclavicle 1.44156e-14 -2.23744e-14 0
lhumerus -73.8987 -18.3989 104.6
lradius 100.697 0 0
lwrist 58.4943 0 0
lhand -9.77974 41.1275 0
lfingers 7.12502 0 0
lthumb 16.2277 -289.661 0
rclavicle 5.56926e-14 1.20565e-14 0
rhumerus 62.8168 -13.9614 -27.5768
rradius 82.5804 0 0
rwrist 26.4453 0 0
rhand -43.5464 -31.2373 0
rfingers 7.12502 0 0
rthumb -16.6125 -60.48 0
